<svg xmlns="http://www.w3.org/2000/svg" width="235.957" height="235.957" viewBox="0 0 235.957 235.957">
  <path id="icon_instagram_transparent_white_10_" data-name="icon instagram transparent white 10%" d="M176.97,36.873v14.74a7.374,7.374,0,0,0,7.374,7.374h14.748a7.376,7.376,0,1,1,0,14.751H180.656a18.384,18.384,0,0,1-18.29-16.949c-.04-.5-.147-.976-.147-1.489V36.873a7.375,7.375,0,1,1,14.751,0ZM58.987,125.349a7.374,7.374,0,1,1,7.374,7.377A7.377,7.377,0,0,1,58.987,125.349Zm58.991,51.623A58.727,58.727,0,0,1,76.814,160.19a7.357,7.357,0,1,1,9.855-10.9l.025-.025a44.2,44.2,0,0,0,75.028-25.04l.058.007a7.376,7.376,0,1,1,14.305,3.309,58.912,58.912,0,0,1-58.106,49.429Zm110.6-44.245a7.376,7.376,0,1,1,7.374-7.377A7.371,7.371,0,0,1,228.583,132.727Zm-36.866,103.23H44.24A44.242,44.242,0,0,1,0,191.712V117.976A29.491,29.491,0,0,1,29.488,88.485h29.5A14.74,14.74,0,0,0,70.8,82.566a1.557,1.557,0,0,1,.223-.2,58.831,58.831,0,0,1,93.9,0,1.534,1.534,0,0,1,.223.2,14.74,14.74,0,0,0,11.817,5.919h29.5a14.752,14.752,0,0,0,14.748-14.747V44.247a29.5,29.5,0,0,0-29.5-29.5H44.24a29.492,29.492,0,0,0-29.492,29.5V66.362A7.374,7.374,0,1,1,0,66.362V44.247A44.244,44.244,0,0,1,44.24,0H191.717a44.245,44.245,0,0,1,44.24,44.247V73.738a29.5,29.5,0,0,1-29.488,29.5h-29.5a29.445,29.445,0,0,1-23.58-11.78c-.043-.058-.1-.067-.141-.115a44.141,44.141,0,0,0-70.541,0c-.043.048-.1.058-.141.115a29.435,29.435,0,0,1-23.58,11.78h-29.5a14.739,14.739,0,0,0-14.74,14.742v73.736a29.492,29.492,0,0,0,29.492,29.5H191.717a29.5,29.5,0,0,0,29.5-29.5V154.847a7.37,7.37,0,1,1,14.74,0v36.865a44.243,44.243,0,0,1-44.24,44.245Z" fill="#fff" fill-rule="evenodd" opacity="0.1"/>
</svg>
