<svg xmlns="http://www.w3.org/2000/svg" width="30" height="30" viewBox="0 0 30 30">
  <path id="icon_instagram_outlined_white" data-name="icon instagram outlined white" d="M22.5,4.688V6.562a.938.938,0,0,0,.938.938h1.875a.938.938,0,1,1,0,1.875H22.969A2.337,2.337,0,0,1,20.644,7.22c-.005-.063-.019-.124-.019-.189V4.688a.938.938,0,0,1,1.875,0ZM7.5,15.937a.937.937,0,1,1,.937.938A.938.938,0,0,1,7.5,15.937ZM15,22.5a7.467,7.467,0,0,1-5.234-2.134.935.935,0,1,1,1.253-1.386l0,0a5.62,5.62,0,0,0,9.539-3.184h.007a.938.938,0,1,1,1.819.421A7.49,7.49,0,0,1,15,22.5Zm14.062-5.625A.938.938,0,1,1,30,15.937.937.937,0,0,1,29.062,16.875ZM24.375,30H5.625A5.625,5.625,0,0,1,0,24.375V15a3.75,3.75,0,0,1,3.749-3.75H7.5A1.874,1.874,0,0,0,9,10.5a.2.2,0,0,1,.028-.025,7.48,7.48,0,0,1,11.939,0A.2.2,0,0,1,21,10.5a1.874,1.874,0,0,0,1.5.753h3.751a1.876,1.876,0,0,0,1.875-1.875V5.626a3.75,3.75,0,0,0-3.751-3.75H5.625a3.75,3.75,0,0,0-3.75,3.75V8.437A.938.938,0,1,1,0,8.437V5.626A5.625,5.625,0,0,1,5.625,0H24.375A5.625,5.625,0,0,1,30,5.626v3.75a3.75,3.75,0,0,1-3.749,3.75H22.5a3.744,3.744,0,0,1-3-1.5c-.006-.007-.013-.008-.018-.015a5.612,5.612,0,0,0-8.969,0c-.006.006-.013.007-.018.015a3.742,3.742,0,0,1-3,1.5H3.749A1.874,1.874,0,0,0,1.875,15v9.375a3.75,3.75,0,0,0,3.75,3.75H24.375a3.75,3.75,0,0,0,3.751-3.75V19.688a.937.937,0,1,1,1.874,0v4.687A5.625,5.625,0,0,1,24.375,30Z" fill="#fff" fill-rule="evenodd" opacity="0.7"/>
</svg>
