<svg xmlns="http://www.w3.org/2000/svg" width="30.282" height="26.5" viewBox="0 0 30.282 26.5">
  <path id="icon_twitter_outlined_white" data-name="icon twitter outlined white" d="M30.282,36.487a1.915,1.915,0,0,1-.354,1.114,10.91,10.91,0,0,1-2.21,2.213.935.935,0,0,0-.284.623A19.516,19.516,0,0,1,23.13,52.3a16.909,16.909,0,0,1-12.721,6.2.946.946,0,1,1,0-1.893c9.378,0,14.487-8.2,15.082-15.2a1.475,1.475,0,0,0,.045-.4c0-.06,0-.119,0-.177a3.073,3.073,0,0,1,.972-2.071.864.864,0,0,0,.069-.075,13.994,13.994,0,0,0,1.8-2.2,10.679,10.679,0,0,1-2.184.706.238.238,0,0,1-.234-.237.235.235,0,0,1,.069-.167s-.006,0-.007,0a5.493,5.493,0,0,0,1.626-2.473,10.953,10.953,0,0,1-1.578.775,3.07,3.07,0,0,1-2.851-.293c-.019-.013-.038-.021-.057-.033a4.984,4.984,0,0,0-2.82-.87l-.111.02a4.847,4.847,0,0,0-4.8,3.354c-.019.009-.21.852-.229.973a2.365,2.365,0,0,1-2.336,2,2.223,2.223,0,0,1-.378-.032,14.62,14.62,0,0,1-8-4.1.346.346,0,0,1-.04-.032.71.71,0,0,0-1,0,.728.728,0,0,0-.15.221c-.008.02-.014.02-.02.024a4.716,4.716,0,0,0-.437,1.839,5.305,5.305,0,0,0,1.315,3.407s-.009,0-.005,0a.474.474,0,0,1-.363.778.454.454,0,0,1-.147-.03L3.616,42.3a.036.036,0,0,1-.033,0,.467.467,0,0,0-.211-.05.474.474,0,0,0-.471.463,5.851,5.851,0,0,0,2.675,4.049c-.018,0-.029,0-.022,0a.473.473,0,0,1-.259.869H5.278l-.018,0-.05-.007a.235.235,0,0,0-.227.234.225.225,0,0,0,.023.1,5.486,5.486,0,0,0,1.857,2.379c.01.007.012.014.023.022A1.655,1.655,0,0,1,6.4,53.281h0a10.145,10.145,0,0,1-3.088.486H2.721A.237.237,0,0,0,2.485,54a.23.23,0,0,0,.093.183c.39.231.789.457,1.2.667h0a.91.91,0,1,1-.989,1.521c-.663-.347-1.306-.718-1.917-1.114A1.923,1.923,0,0,1,.112,53a1.77,1.77,0,0,1,1.781-1.129c.352.043,1.059,0,1.419,0a8.14,8.14,0,0,0,2.011-.316,7.386,7.386,0,0,1-2.263-3.4,1.929,1.929,0,0,1-.038-1.029A7.953,7.953,0,0,1,.946,41.94a1.935,1.935,0,0,1,.621-1.209,7.614,7.614,0,0,1-.621-2.577A7.638,7.638,0,0,1,2.1,34.428a2.31,2.31,0,0,1,1.683-1,1.865,1.865,0,0,1,1.428.76c1.785,2.209,4.578,3.4,7.326,4.075a.839.839,0,0,0,.147.015.945.945,0,0,0,.922-.735A6.779,6.779,0,0,1,20.235,32a7.314,7.314,0,0,1,4.031,1.22,1.182,1.182,0,0,0,.634.188,1.143,1.143,0,0,0,.3-.043,8.887,8.887,0,0,0,1.486-.7,2.34,2.34,0,0,1,2.151.149,1.925,1.925,0,0,1,.625,2.082s0,0,0,.006a1.922,1.922,0,0,1,.824,1.581ZM1.893,51.875,3.785,33.423,7.1,56.134a.946.946,0,1,1-.946.946A.947.947,0,0,1,7.1,56.134Z" transform="translate(0 -32)" fill="#fff" fill-rule="evenodd" opacity="0.7"/>
</svg>
