<svg xmlns="http://www.w3.org/2000/svg" width="30" height="22.5" viewBox="0 0 30 22.5">
  <path id="icon_youtube_outlined_white" data-name="icon youtube outlined white" d="M29.7,81.367a10.143,10.143,0,0,1-1.574,3.258,5.037,5.037,0,0,1-3.094,1.552c-.192.015-.391.027-.59.039v-.008a.915.915,0,0,1-.731-.258.918.918,0,0,1,.594-1.575v-.011l.1-.006a3.517,3.517,0,0,0,2.49-1.073,5.531,5.531,0,0,0,.987-2.513,39.045,39.045,0,0,0,.248-4.1V73.815a39.087,39.087,0,0,0-.248-4.1,5.532,5.532,0,0,0-.987-2.513,3.519,3.519,0,0,0-2.49-1.072c-3.477-.256-9.4-.255-9.4-.255s-5.923,0-9.4.255A3.517,3.517,0,0,0,3.11,67.2a5.544,5.544,0,0,0-.987,2.513,38.94,38.94,0,0,0-.248,4.1v2.859a39.044,39.044,0,0,0,.248,4.1,5.538,5.538,0,0,0,.987,2.513,4.16,4.16,0,0,0,2.74,1.083c1.988.194,9.149.257,9.149.257A.938.938,0,1,1,15,86.5c-.016,0-.031,0-.046,0-.592-.006-7.389-.082-9.685-.308a5.837,5.837,0,0,1-3.4-1.563A10.128,10.128,0,0,1,.3,81.367,33.969,33.969,0,0,1,0,76.875V73.612A33.99,33.99,0,0,1,.3,69.12a10.1,10.1,0,0,1,1.573-3.244A5.082,5.082,0,0,1,4.967,64.31C9.165,64,14.994,64,14.994,64h.013s5.828,0,10.026.31a5.078,5.078,0,0,1,3.094,1.566A10.109,10.109,0,0,1,29.7,69.12a34.043,34.043,0,0,1,.3,4.492v3.263a34.021,34.021,0,0,1-.3,4.492ZM18.75,84.625a.938.938,0,1,1-.938.938A.938.938,0,0,1,18.75,84.625Zm-4.191-4.8-.009,0a.907.907,0,0,1-.473.135.92.92,0,0,1-.426-1.738h0l4.782-2.55s-.011,0-.006-.006a.467.467,0,0,0,.034-.823l-5.6-2.991a.452.452,0,0,0-.207-.049.465.465,0,0,0-.464.442v5.8h-.007s0,.006,0,.01a.938.938,0,0,1-1.876,0v-6.53A1.908,1.908,0,0,1,13.2,69.9a.174.174,0,0,0,.025.008L19.7,73.634a1.849,1.849,0,0,1,.38.291,1.875,1.875,0,0,1,0,2.652,1.925,1.925,0,0,1-.35.273L14.6,79.806l-.038.023Z" transform="translate(0 -64)" fill="#fff" fill-rule="evenodd" opacity="0.7"/>
</svg>
