<svg id="flag-french" xmlns="http://www.w3.org/2000/svg" width="30" height="30" viewBox="0 0 30 30">
  <path id="Tracé_1113" data-name="Tracé 1113" d="M122,230.89a15,15,0,1,1-15-15,15,15,0,0,1,15,15Zm0,0" transform="translate(-92 -215.89)" fill="#f0f0f0"/>
  <path id="Tracé_1114" data-name="Tracé 1114" d="M377.582,242.718a15.017,15.017,0,0,0-9.547-14.09v28.179a15.017,15.017,0,0,0,9.547-14.089Zm0,0" transform="translate(-347.582 -227.718)" fill="#d80027"/>
  <path id="Tracé_1115" data-name="Tracé 1115" d="M92,242.718a15.017,15.017,0,0,0,9.547,14.089V228.628A15.017,15.017,0,0,0,92,242.718Zm0,0" transform="translate(-92 -227.718)" fill="#0052b4"/>
</svg>
