<svg xmlns="http://www.w3.org/2000/svg" width="19.5" height="32.842" viewBox="0 0 19.5 32.842">
  <path id="Tracé_2322" data-name="Tracé 2322" d="M128.933,8.211h-2.565a1.026,1.026,0,0,0-1.026,1.026V11.29a1.025,1.025,0,0,0,1.026,1.025h2.948a2.172,2.172,0,0,1,2.121,2.727l-.576,3.074A3.025,3.025,0,0,1,128,20.527h-1.635a1.025,1.025,0,0,0-1.026,1.025v8.725a2.566,2.566,0,0,1-2.566,2.565c-.02,0-1.695,0-2.566,0a1.026,1.026,0,1,1,0-2.053h2.053a1.025,1.025,0,0,0,1.026-1.025V21.04a2.566,2.566,0,0,1,2.566-2.566h1.855a1.341,1.341,0,0,0,1.223-.964l.544-2.05a.8.8,0,0,0-.76-1.092h-2.862a2.566,2.566,0,0,1-2.566-2.566V8.724a2.566,2.566,0,0,1,2.566-2.566h2.565a1.026,1.026,0,0,0,1.026-1.027V3.078a1.026,1.026,0,0,0-1.026-1.025h-4.1a5.132,5.132,0,0,0-5.133,5.131V11.8a2.565,2.565,0,0,1-2.565,2.566H115.1a1.076,1.076,0,0,0-1.051,1.092v2.05a.962.962,0,0,0,.967.964h1.6a2.565,2.565,0,0,1,2.565,2.566V23.6a1.026,1.026,0,1,1-2.052,0V21.552a1.026,1.026,0,0,0-1.026-1.025h-1.7A2.4,2.4,0,0,1,112,18.116V15.042a2.693,2.693,0,0,1,2.631-2.727H116.1a1.026,1.026,0,0,0,1.026-1.025V6.671A6.67,6.67,0,0,1,123.8,0h5.131A2.565,2.565,0,0,1,131.5,2.565V5.644a2.566,2.566,0,0,1-2.566,2.566ZM118.157,26.684a1.027,1.027,0,1,1-1.026,1.026A1.025,1.025,0,0,1,118.157,26.684Z" transform="translate(-111.999)" fill="#3b5998" fill-rule="evenodd" opacity="0.7"/>
</svg>
