<svg xmlns="http://www.w3.org/2000/svg" width="30" height="28.125" viewBox="0 0 30 28.125">
  <path id="Tracé_2323" data-name="Tracé 2323" d="M27.656,28.125H22.969a2.344,2.344,0,0,1-2.3-1.877l-.047,0V17.766a1.876,1.876,0,0,0-3.75,0v8.016a2.327,2.327,0,0,1-.553,1.495,1.039,1.039,0,1,1-1.567-1.338A.925.925,0,0,0,15,25.313V17.679a3.752,3.752,0,0,1,7.5,0v6.295c0,.067-.006.125-.011.187l.011,0v1.155a.937.937,0,0,0,.938.937h3.75a.937.937,0,0,0,.938-.937V16.876a.933.933,0,0,0-.023-.2,7.617,7.617,0,0,0-7.477-7.3,7.259,7.259,0,0,0-4.416,1.5s-.01,0-.019.006A.732.732,0,0,1,15,10.312a.217.217,0,0,0-.008-.084.935.935,0,0,0-.929-.854H11.25A1.876,1.876,0,0,0,9.375,11.25V25.313a.934.934,0,0,0,.036.243.721.721,0,0,0-.036.226,2.343,2.343,0,0,1-2.344,2.343H2.344A2.344,2.344,0,0,1,0,25.782V9.843A2.344,2.344,0,0,1,2.344,7.5H4.688A2.813,2.813,0,1,0,1.875,4.687.938.938,0,0,1,0,4.687a4.688,4.688,0,1,1,9.317.7c-.008.044-.012.089-.02.133a4.537,4.537,0,0,1-.17.667c0,.011-.008.02-.011.031A4.7,4.7,0,0,1,4.688,9.374H2.813a.938.938,0,0,0-.938.938v15a.937.937,0,0,0,.938.937H7.547a2.365,2.365,0,0,1-.047-.468V11.25A3.75,3.75,0,0,1,11.25,7.5h3.282a2.315,2.315,0,0,1,1.514.563c.005,0,.01,0,.016,0a.937.937,0,0,0,.969.153.121.121,0,0,1,.073-.01A9.262,9.262,0,0,1,20.625,7.5a9.376,9.376,0,0,1,9.328,8.432,2.344,2.344,0,0,1,.047.474v9.375a2.343,2.343,0,0,1-2.344,2.343ZM12.188,26.25a.938.938,0,1,1-.938.938A.938.938,0,0,1,12.188,26.25Z" fill="#469ec8" fill-rule="evenodd" opacity="0.7"/>
</svg>
